<svg id="visual" viewBox="0 0 960 540" width="960" height="540" xmlns="http://www.w3.org/2000/svg" xmlns:xlink="http://www.w3.org/1999/xlink" version="1.1"><path d="M0 329L22.8 341.5C45.7 354 91.3 379 137 382.2C182.7 385.3 228.3 366.7 274 361.3C319.7 356 365.3 364 411.2 372C457 380 503 388 548.8 386.7C594.7 385.3 640.3 374.7 686 367C731.7 359.3 777.3 354.7 823 348.8C868.7 343 914.3 336 937.2 332.5L960 329L960 541L937.2 541C914.3 541 868.7 541 823 541C777.3 541 731.7 541 686 541C640.3 541 594.7 541 548.8 541C503 541 457 541 411.2 541C365.3 541 319.7 541 274 541C228.3 541 182.7 541 137 541C91.3 541 45.7 541 22.8 541L0 541Z" fill="#fa7268"></path><path d="M0 424L22.8 419.7C45.7 415.3 91.3 406.7 137 401.3C182.7 396 228.3 394 274 398.2C319.7 402.3 365.3 412.7 411.2 418.2C457 423.7 503 424.3 548.8 417C594.7 409.7 640.3 394.3 686 389.2C731.7 384 777.3 389 823 396.5C868.7 404 914.3 414 937.2 419L960 424L960 541L937.2 541C914.3 541 868.7 541 823 541C777.3 541 731.7 541 686 541C640.3 541 594.7 541 548.8 541C503 541 457 541 411.2 541C365.3 541 319.7 541 274 541C228.3 541 182.7 541 137 541C91.3 541 45.7 541 22.8 541L0 541Z" fill="#ef5f67"></path><path d="M0 456L22.8 453.7C45.7 451.3 91.3 446.7 137 439C182.7 431.3 228.3 420.7 274 413C319.7 405.3 365.3 400.7 411.2 402.5C457 404.3 503 412.7 548.8 423.2C594.7 433.7 640.3 446.3 686 446.7C731.7 447 777.3 435 823 435C868.7 435 914.3 447 937.2 453L960 459L960 541L937.2 541C914.3 541 868.7 541 823 541C777.3 541 731.7 541 686 541C640.3 541 594.7 541 548.8 541C503 541 457 541 411.2 541C365.3 541 319.7 541 274 541C228.3 541 182.7 541 137 541C91.3 541 45.7 541 22.8 541L0 541Z" fill="#e34c67"></path><path d="M0 485L22.8 480.3C45.7 475.7 91.3 466.3 137 466.2C182.7 466 228.3 475 274 479C319.7 483 365.3 482 411.2 474.8C457 467.7 503 454.3 548.8 452.5C594.7 450.7 640.3 460.3 686 460C731.7 459.7 777.3 449.3 823 447C868.7 444.7 914.3 450.3 937.2 453.2L960 456L960 541L937.2 541C914.3 541 868.7 541 823 541C777.3 541 731.7 541 686 541C640.3 541 594.7 541 548.8 541C503 541 457 541 411.2 541C365.3 541 319.7 541 274 541C228.3 541 182.7 541 137 541C91.3 541 45.7 541 22.8 541L0 541Z" fill="#d53867"></path><path d="M0 482L22.8 482.2C45.7 482.3 91.3 482.7 137 483.5C182.7 484.3 228.3 485.7 274 489.5C319.7 493.3 365.3 499.7 411.2 499.5C457 499.3 503 492.7 548.8 493.2C594.7 493.7 640.3 501.3 686 502.8C731.7 504.3 777.3 499.7 823 495.7C868.7 491.7 914.3 488.3 937.2 486.7L960 485L960 541L937.2 541C914.3 541 868.7 541 823 541C777.3 541 731.7 541 686 541C640.3 541 594.7 541 548.8 541C503 541 457 541 411.2 541C365.3 541 319.7 541 274 541C228.3 541 182.7 541 137 541C91.3 541 45.7 541 22.8 541L0 541Z" fill="#c62368"></path></svg>