<svg id="visual" viewBox="0 0 960 540" width="960" height="540" xmlns="http://www.w3.org/2000/svg" xmlns:xlink="http://www.w3.org/1999/xlink" version="1.1"><g stroke-width="1" stroke-linejoin="bevel"><path d="M489 264L536 286L540 207Z" fill="#246688" stroke="#246688"></path><path d="M540 207L531 193L489 264Z" fill="#00101c" stroke="#00101c"></path><path d="M536 286L600 268L540 207Z" fill="#277297" stroke="#277297"></path><path d="M540 207L554 142L531 193Z" fill="#0c2435" stroke="#0c2435"></path><path d="M531 193L481 165L489 264Z" fill="#19435d" stroke="#19435d"></path><path d="M481 165L430 222L489 264Z" fill="#297ea6" stroke="#297ea6"></path><path d="M536 286L604 315L600 268Z" fill="#00101c" stroke="#00101c"></path><path d="M625 198L554 142L540 207Z" fill="#1d4e6b" stroke="#1d4e6b"></path><path d="M531 193L526 128L481 165Z" fill="#00101c" stroke="#00101c"></path><path d="M430 222L421 274L489 264Z" fill="#081a28" stroke="#081a28"></path><path d="M425 368L550 370L536 286Z" fill="#1d4e6b" stroke="#1d4e6b"></path><path d="M536 286L550 370L604 315Z" fill="#277297" stroke="#277297"></path><path d="M634 196L625 198L600 268Z" fill="#15384f" stroke="#15384f"></path><path d="M600 268L625 198L540 207Z" fill="#081a28" stroke="#081a28"></path><path d="M554 142L526 128L531 193Z" fill="#1d4e6b" stroke="#1d4e6b"></path><path d="M449 116L435 170L481 165Z" fill="#205a7a" stroke="#205a7a"></path><path d="M481 165L435 170L430 222Z" fill="#205a7a" stroke="#205a7a"></path><path d="M430 222L390 250L421 274Z" fill="#0c2435" stroke="#0c2435"></path><path d="M704 211L634 196L600 268Z" fill="#081a28" stroke="#081a28"></path><path d="M625 198L634 196L554 142Z" fill="#297ea6" stroke="#297ea6"></path><path d="M425 368L536 286L489 264Z" fill="#246688" stroke="#246688"></path><path d="M365 214L390 250L430 222Z" fill="#19435d" stroke="#19435d"></path><path d="M483 91L449 116L481 165Z" fill="#1d4e6b" stroke="#1d4e6b"></path><path d="M435 170L399 161L430 222Z" fill="#19435d" stroke="#19435d"></path><path d="M449 116L399 161L435 170Z" fill="#081a28" stroke="#081a28"></path><path d="M550 370L593 389L604 315Z" fill="#277297" stroke="#277297"></path><path d="M604 315L667 342L600 268Z" fill="#15384f" stroke="#15384f"></path><path d="M364 311L425 368L421 274Z" fill="#1d4e6b" stroke="#1d4e6b"></path><path d="M421 274L425 368L489 264Z" fill="#246688" stroke="#246688"></path><path d="M550 370L525 428L593 389Z" fill="#00101c" stroke="#00101c"></path><path d="M526 128L483 91L481 165Z" fill="#297ea6" stroke="#297ea6"></path><path d="M551 64L483 91L526 128Z" fill="#15384f" stroke="#15384f"></path><path d="M551 64L526 128L554 142Z" fill="#0c2435" stroke="#0c2435"></path><path d="M399 161L365 214L430 222Z" fill="#112e42" stroke="#112e42"></path><path d="M390 250L361 301L421 274Z" fill="#00101c" stroke="#00101c"></path><path d="M662 369L667 342L604 315Z" fill="#297ea6" stroke="#297ea6"></path><path d="M425 368L477 410L550 370Z" fill="#19435d" stroke="#19435d"></path><path d="M425 368L450 402L477 410Z" fill="#0c2435" stroke="#0c2435"></path><path d="M365 214L361 301L390 250Z" fill="#0c2435" stroke="#0c2435"></path><path d="M427 437L444 441L450 402Z" fill="#205a7a" stroke="#205a7a"></path><path d="M361 301L364 311L421 274Z" fill="#205a7a" stroke="#205a7a"></path><path d="M717 273L704 211L600 268Z" fill="#15384f" stroke="#15384f"></path><path d="M594 57L551 64L554 142Z" fill="#19435d" stroke="#19435d"></path><path d="M542 447L525 428L444 441Z" fill="#246688" stroke="#246688"></path><path d="M477 410L525 428L550 370Z" fill="#112e42" stroke="#112e42"></path><path d="M683 374L662 369L623 442Z" fill="#19435d" stroke="#19435d"></path><path d="M593 389L662 369L604 315Z" fill="#205a7a" stroke="#205a7a"></path><path d="M749 220L712 205L704 211Z" fill="#246688" stroke="#246688"></path><path d="M594 57L554 142L661 91Z" fill="#205a7a" stroke="#205a7a"></path><path d="M717 273L600 268L667 342Z" fill="#246688" stroke="#246688"></path><path d="M704 211L712 205L634 196Z" fill="#297ea6" stroke="#297ea6"></path><path d="M732 386L717 273L667 342Z" fill="#246688" stroke="#246688"></path><path d="M661 91L554 142L634 196Z" fill="#205a7a" stroke="#205a7a"></path><path d="M444 441L525 428L477 410Z" fill="#0c2435" stroke="#0c2435"></path><path d="M525 428L542 447L593 389Z" fill="#1d4e6b" stroke="#1d4e6b"></path><path d="M623 442L662 369L593 389Z" fill="#246688" stroke="#246688"></path><path d="M662 369L683 374L667 342Z" fill="#00101c" stroke="#00101c"></path><path d="M712 205L661 91L634 196Z" fill="#246688" stroke="#246688"></path><path d="M661 91L603 53L594 57Z" fill="#15384f" stroke="#15384f"></path><path d="M536 0L519 0L551 64Z" fill="#205a7a" stroke="#205a7a"></path><path d="M286 283L333 323L361 301Z" fill="#297ea6" stroke="#297ea6"></path><path d="M361 301L333 323L364 311Z" fill="#1d4e6b" stroke="#1d4e6b"></path><path d="M364 311L313 374L425 368Z" fill="#297ea6" stroke="#297ea6"></path><path d="M427 437L450 402L425 368Z" fill="#00101c" stroke="#00101c"></path><path d="M450 402L444 441L477 410Z" fill="#246688" stroke="#246688"></path><path d="M313 374L427 437L425 368Z" fill="#112e42" stroke="#112e42"></path><path d="M542 447L623 442L593 389Z" fill="#297ea6" stroke="#297ea6"></path><path d="M790 257L746 251L717 273Z" fill="#15384f" stroke="#15384f"></path><path d="M717 273L746 251L704 211Z" fill="#0c2435" stroke="#0c2435"></path><path d="M712 205L677 84L661 91Z" fill="#277297" stroke="#277297"></path><path d="M733 71L677 84L712 205Z" fill="#246688" stroke="#246688"></path><path d="M661 91L694 42L603 53Z" fill="#0c2435" stroke="#0c2435"></path><path d="M298 63L325 150L399 161Z" fill="#1d4e6b" stroke="#1d4e6b"></path><path d="M399 161L325 150L365 214Z" fill="#205a7a" stroke="#205a7a"></path><path d="M365 214L286 283L361 301Z" fill="#00101c" stroke="#00101c"></path><path d="M375 9L399 161L449 116Z" fill="#246688" stroke="#246688"></path><path d="M443 0L449 116L483 91Z" fill="#0c2435" stroke="#0c2435"></path><path d="M746 251L749 220L704 211Z" fill="#112e42" stroke="#112e42"></path><path d="M287 446L424 458L427 437Z" fill="#112e42" stroke="#112e42"></path><path d="M427 437L424 458L444 441Z" fill="#277297" stroke="#277297"></path><path d="M460 540L555 540L542 447Z" fill="#00101c" stroke="#00101c"></path><path d="M542 447L604 494L623 442Z" fill="#1d4e6b" stroke="#1d4e6b"></path><path d="M280 185L286 283L365 214Z" fill="#00101c" stroke="#00101c"></path><path d="M333 323L313 374L364 311Z" fill="#277297" stroke="#277297"></path><path d="M536 0L551 64L594 57Z" fill="#0c2435" stroke="#0c2435"></path><path d="M551 64L519 0L483 91Z" fill="#277297" stroke="#277297"></path><path d="M536 0L594 57L603 53Z" fill="#19435d" stroke="#19435d"></path><path d="M663 0L536 0L603 53Z" fill="#00101c" stroke="#00101c"></path><path d="M244 313L313 374L333 323Z" fill="#297ea6" stroke="#297ea6"></path><path d="M691 480L732 386L683 374Z" fill="#0c2435" stroke="#0c2435"></path><path d="M683 374L732 386L667 342Z" fill="#112e42" stroke="#112e42"></path><path d="M325 150L280 185L365 214Z" fill="#205a7a" stroke="#205a7a"></path><path d="M519 0L443 0L483 91Z" fill="#00101c" stroke="#00101c"></path><path d="M325 150L269 170L280 185Z" fill="#112e42" stroke="#112e42"></path><path d="M594 515L604 494L542 447Z" fill="#112e42" stroke="#112e42"></path><path d="M623 442L691 480L683 374Z" fill="#19435d" stroke="#19435d"></path><path d="M732 386L790 257L717 273Z" fill="#277297" stroke="#277297"></path><path d="M746 251L790 221L749 220Z" fill="#00101c" stroke="#00101c"></path><path d="M733 71L694 42L677 84Z" fill="#00101c" stroke="#00101c"></path><path d="M733 71L712 205L780 95Z" fill="#297ea6" stroke="#297ea6"></path><path d="M677 84L694 42L661 91Z" fill="#246688" stroke="#246688"></path><path d="M790 257L790 221L746 251Z" fill="#277297" stroke="#277297"></path><path d="M262 118L269 170L325 150Z" fill="#1d4e6b" stroke="#1d4e6b"></path><path d="M237 275L244 313L286 283Z" fill="#112e42" stroke="#112e42"></path><path d="M801 191L712 205L749 220Z" fill="#15384f" stroke="#15384f"></path><path d="M443 0L402 0L449 116Z" fill="#112e42" stroke="#112e42"></path><path d="M555 540L594 515L542 447Z" fill="#0c2435" stroke="#0c2435"></path><path d="M604 494L691 480L623 442Z" fill="#081a28" stroke="#081a28"></path><path d="M790 221L801 191L749 220Z" fill="#297ea6" stroke="#297ea6"></path><path d="M911 291L801 191L790 221Z" fill="#277297" stroke="#277297"></path><path d="M402 0L375 9L449 116Z" fill="#00101c" stroke="#00101c"></path><path d="M715 0L663 0L694 42Z" fill="#1d4e6b" stroke="#1d4e6b"></path><path d="M694 42L663 0L603 53Z" fill="#205a7a" stroke="#205a7a"></path><path d="M619 540L691 480L604 494Z" fill="#15384f" stroke="#15384f"></path><path d="M732 386L769 398L790 257Z" fill="#205a7a" stroke="#205a7a"></path><path d="M691 480L769 398L732 386Z" fill="#112e42" stroke="#112e42"></path><path d="M911 291L853 146L801 191Z" fill="#0c2435" stroke="#0c2435"></path><path d="M237 275L286 283L280 185Z" fill="#19435d" stroke="#19435d"></path><path d="M286 283L244 313L333 323Z" fill="#246688" stroke="#246688"></path><path d="M210 262L237 275L280 185Z" fill="#081a28" stroke="#081a28"></path><path d="M375 9L298 63L399 161Z" fill="#112e42" stroke="#112e42"></path><path d="M269 170L220 168L280 185Z" fill="#246688" stroke="#246688"></path><path d="M298 63L262 118L325 150Z" fill="#0c2435" stroke="#0c2435"></path><path d="M801 191L780 95L712 205Z" fill="#277297" stroke="#277297"></path><path d="M736 0L715 0L694 42Z" fill="#081a28" stroke="#081a28"></path><path d="M460 540L542 447L444 441Z" fill="#081a28" stroke="#081a28"></path><path d="M594 515L619 540L604 494Z" fill="#1d4e6b" stroke="#1d4e6b"></path><path d="M359 540L460 540L424 458Z" fill="#081a28" stroke="#081a28"></path><path d="M424 458L460 540L444 441Z" fill="#112e42" stroke="#112e42"></path><path d="M287 446L427 437L313 374Z" fill="#081a28" stroke="#081a28"></path><path d="M555 540L601 540L594 515Z" fill="#0c2435" stroke="#0c2435"></path><path d="M172 323L240 359L244 313Z" fill="#19435d" stroke="#19435d"></path><path d="M244 313L240 359L313 374Z" fill="#277297" stroke="#277297"></path><path d="M601 540L619 540L594 515Z" fill="#112e42" stroke="#112e42"></path><path d="M805 441L794 400L769 398Z" fill="#246688" stroke="#246688"></path><path d="M769 398L853 349L790 257Z" fill="#297ea6" stroke="#297ea6"></path><path d="M839 379L794 400L805 441Z" fill="#1d4e6b" stroke="#1d4e6b"></path><path d="M736 0L694 42L733 71Z" fill="#246688" stroke="#246688"></path><path d="M240 359L287 446L313 374Z" fill="#246688" stroke="#246688"></path><path d="M212 133L220 168L262 118Z" fill="#1d4e6b" stroke="#1d4e6b"></path><path d="M262 118L220 168L269 170Z" fill="#277297" stroke="#277297"></path><path d="M237 275L210 262L244 313Z" fill="#297ea6" stroke="#297ea6"></path><path d="M220 168L210 262L280 185Z" fill="#205a7a" stroke="#205a7a"></path><path d="M270 451L284 460L287 446Z" fill="#246688" stroke="#246688"></path><path d="M287 446L284 460L424 458Z" fill="#112e42" stroke="#112e42"></path><path d="M792 0L736 0L733 71Z" fill="#00101c" stroke="#00101c"></path><path d="M375 9L299 13L298 63Z" fill="#15384f" stroke="#15384f"></path><path d="M204 109L212 133L262 118Z" fill="#277297" stroke="#277297"></path><path d="M271 0L299 13L375 9Z" fill="#1d4e6b" stroke="#1d4e6b"></path><path d="M853 146L807 77L780 95Z" fill="#246688" stroke="#246688"></path><path d="M780 95L807 77L733 71Z" fill="#00101c" stroke="#00101c"></path><path d="M853 146L780 95L801 191Z" fill="#205a7a" stroke="#205a7a"></path><path d="M240 359L270 451L287 446Z" fill="#205a7a" stroke="#205a7a"></path><path d="M204 109L262 118L298 63Z" fill="#19435d" stroke="#19435d"></path><path d="M220 168L168 249L210 262Z" fill="#00101c" stroke="#00101c"></path><path d="M284 460L359 540L424 458Z" fill="#15384f" stroke="#15384f"></path><path d="M341 540L359 540L284 460Z" fill="#1d4e6b" stroke="#1d4e6b"></path><path d="M805 441L769 398L760 507Z" fill="#205a7a" stroke="#205a7a"></path><path d="M794 400L853 349L769 398Z" fill="#0c2435" stroke="#0c2435"></path><path d="M760 507L769 398L691 480Z" fill="#15384f" stroke="#15384f"></path><path d="M911 291L790 221L790 257Z" fill="#112e42" stroke="#112e42"></path><path d="M619 540L702 540L691 480Z" fill="#297ea6" stroke="#297ea6"></path><path d="M839 379L853 349L794 400Z" fill="#19435d" stroke="#19435d"></path><path d="M275 540L341 540L284 460Z" fill="#0c2435" stroke="#0c2435"></path><path d="M224 0L204 109L298 63Z" fill="#205a7a" stroke="#205a7a"></path><path d="M140 220L168 249L220 168Z" fill="#112e42" stroke="#112e42"></path><path d="M702 540L760 507L691 480Z" fill="#205a7a" stroke="#205a7a"></path><path d="M890 370L853 349L839 379Z" fill="#297ea6" stroke="#297ea6"></path><path d="M890 370L865 339L853 349Z" fill="#1d4e6b" stroke="#1d4e6b"></path><path d="M853 349L865 339L790 257Z" fill="#205a7a" stroke="#205a7a"></path><path d="M402 0L271 0L375 9Z" fill="#246688" stroke="#246688"></path><path d="M299 13L271 0L298 63Z" fill="#297ea6" stroke="#297ea6"></path><path d="M210 262L172 323L244 313Z" fill="#15384f" stroke="#15384f"></path><path d="M240 359L219 463L270 451Z" fill="#277297" stroke="#277297"></path><path d="M140 220L220 168L113 151Z" fill="#112e42" stroke="#112e42"></path><path d="M921 69L851 89L853 146Z" fill="#205a7a" stroke="#205a7a"></path><path d="M853 146L851 89L807 77Z" fill="#00101c" stroke="#00101c"></path><path d="M807 77L792 0L733 71Z" fill="#1d4e6b" stroke="#1d4e6b"></path><path d="M851 89L792 0L807 77Z" fill="#297ea6" stroke="#297ea6"></path><path d="M168 249L172 323L210 262Z" fill="#277297" stroke="#277297"></path><path d="M184 431L219 463L240 359Z" fill="#205a7a" stroke="#205a7a"></path><path d="M270 451L219 463L284 460Z" fill="#1d4e6b" stroke="#1d4e6b"></path><path d="M168 249L153 314L172 323Z" fill="#0c2435" stroke="#0c2435"></path><path d="M172 323L184 431L240 359Z" fill="#1d4e6b" stroke="#1d4e6b"></path><path d="M845 473L890 370L839 379Z" fill="#0c2435" stroke="#0c2435"></path><path d="M865 339L911 291L790 257Z" fill="#246688" stroke="#246688"></path><path d="M845 473L839 379L805 441Z" fill="#19435d" stroke="#19435d"></path><path d="M219 463L275 540L284 460Z" fill="#205a7a" stroke="#205a7a"></path><path d="M113 151L220 168L212 133Z" fill="#15384f" stroke="#15384f"></path><path d="M168 249L99 268L153 314Z" fill="#246688" stroke="#246688"></path><path d="M904 360L911 291L865 339Z" fill="#277297" stroke="#277297"></path><path d="M132 434L184 431L172 323Z" fill="#112e42" stroke="#112e42"></path><path d="M219 463L190 540L275 540Z" fill="#00101c" stroke="#00101c"></path><path d="M271 0L224 0L298 63Z" fill="#15384f" stroke="#15384f"></path><path d="M204 109L113 151L212 133Z" fill="#1d4e6b" stroke="#1d4e6b"></path><path d="M760 507L845 473L805 441Z" fill="#112e42" stroke="#112e42"></path><path d="M804 540L845 473L760 507Z" fill="#246688" stroke="#246688"></path><path d="M224 0L220 0L204 109Z" fill="#297ea6" stroke="#297ea6"></path><path d="M960 439L904 360L890 370Z" fill="#297ea6" stroke="#297ea6"></path><path d="M890 370L904 360L865 339Z" fill="#00101c" stroke="#00101c"></path><path d="M702 540L804 540L760 507Z" fill="#081a28" stroke="#081a28"></path><path d="M804 540L813 540L845 473Z" fill="#15384f" stroke="#15384f"></path><path d="M960 331L911 291L904 360Z" fill="#246688" stroke="#246688"></path><path d="M911 291L938 170L853 146Z" fill="#0c2435" stroke="#0c2435"></path><path d="M851 89L937 34L792 0Z" fill="#277297" stroke="#277297"></path><path d="M960 241L938 170L911 291Z" fill="#00101c" stroke="#00101c"></path><path d="M92 99L113 151L204 109Z" fill="#112e42" stroke="#112e42"></path><path d="M99 268L112 338L153 314Z" fill="#112e42" stroke="#112e42"></path><path d="M99 268L168 249L140 220Z" fill="#15384f" stroke="#15384f"></path><path d="M153 314L112 338L172 323Z" fill="#1d4e6b" stroke="#1d4e6b"></path><path d="M96 208L99 268L140 220Z" fill="#15384f" stroke="#15384f"></path><path d="M132 434L147 452L184 431Z" fill="#277297" stroke="#277297"></path><path d="M184 431L147 452L219 463Z" fill="#19435d" stroke="#19435d"></path><path d="M113 151L96 208L140 220Z" fill="#112e42" stroke="#112e42"></path><path d="M960 126L921 69L853 146Z" fill="#00101c" stroke="#00101c"></path><path d="M960 310L960 241L911 291Z" fill="#081a28" stroke="#081a28"></path><path d="M938 170L960 126L853 146Z" fill="#0c2435" stroke="#0c2435"></path><path d="M112 338L132 434L172 323Z" fill="#112e42" stroke="#112e42"></path><path d="M960 241L960 189L938 170Z" fill="#15384f" stroke="#15384f"></path><path d="M960 331L960 310L911 291Z" fill="#297ea6" stroke="#297ea6"></path><path d="M960 331L904 360L960 439Z" fill="#15384f" stroke="#15384f"></path><path d="M960 439L890 370L845 473Z" fill="#0c2435" stroke="#0c2435"></path><path d="M220 0L154 0L204 109Z" fill="#1d4e6b" stroke="#1d4e6b"></path><path d="M113 151L46 174L96 208Z" fill="#1d4e6b" stroke="#1d4e6b"></path><path d="M108 499L190 540L147 452Z" fill="#15384f" stroke="#15384f"></path><path d="M147 452L190 540L219 463Z" fill="#205a7a" stroke="#205a7a"></path><path d="M960 189L960 126L938 170Z" fill="#297ea6" stroke="#297ea6"></path><path d="M0 328L93 372L112 338Z" fill="#205a7a" stroke="#205a7a"></path><path d="M112 338L93 372L132 434Z" fill="#277297" stroke="#277297"></path><path d="M132 434L98 463L147 452Z" fill="#246688" stroke="#246688"></path><path d="M0 328L112 338L99 268Z" fill="#0c2435" stroke="#0c2435"></path><path d="M154 0L92 99L204 109Z" fill="#205a7a" stroke="#205a7a"></path><path d="M96 208L0 290L99 268Z" fill="#19435d" stroke="#19435d"></path><path d="M960 45L937 34L921 69Z" fill="#277297" stroke="#277297"></path><path d="M921 69L937 34L851 89Z" fill="#297ea6" stroke="#297ea6"></path><path d="M36 59L72 120L92 99Z" fill="#15384f" stroke="#15384f"></path><path d="M92 99L72 120L113 151Z" fill="#0c2435" stroke="#0c2435"></path><path d="M960 520L960 439L845 473Z" fill="#00101c" stroke="#00101c"></path><path d="M960 126L960 45L921 69Z" fill="#081a28" stroke="#081a28"></path><path d="M58 442L132 434L93 372Z" fill="#112e42" stroke="#112e42"></path><path d="M58 442L98 463L132 434Z" fill="#1d4e6b" stroke="#1d4e6b"></path><path d="M72 120L46 174L113 151Z" fill="#0c2435" stroke="#0c2435"></path><path d="M960 0L947 0L937 34Z" fill="#0c2435" stroke="#0c2435"></path><path d="M937 34L947 0L792 0Z" fill="#15384f" stroke="#15384f"></path><path d="M98 463L108 499L147 452Z" fill="#246688" stroke="#246688"></path><path d="M960 45L960 0L937 34Z" fill="#297ea6" stroke="#297ea6"></path><path d="M813 540L934 540L845 473Z" fill="#15384f" stroke="#15384f"></path><path d="M0 387L58 442L93 372Z" fill="#081a28" stroke="#081a28"></path><path d="M98 463L45 540L108 499Z" fill="#277297" stroke="#277297"></path><path d="M934 540L960 520L845 473Z" fill="#15384f" stroke="#15384f"></path><path d="M45 540L94 540L108 499Z" fill="#1d4e6b" stroke="#1d4e6b"></path><path d="M108 499L94 540L190 540Z" fill="#1d4e6b" stroke="#1d4e6b"></path><path d="M934 540L960 540L960 520Z" fill="#277297" stroke="#277297"></path><path d="M72 120L0 151L46 174Z" fill="#112e42" stroke="#112e42"></path><path d="M46 174L0 290L96 208Z" fill="#1d4e6b" stroke="#1d4e6b"></path><path d="M62 0L36 59L92 99Z" fill="#297ea6" stroke="#297ea6"></path><path d="M154 0L62 0L92 99Z" fill="#112e42" stroke="#112e42"></path><path d="M0 151L0 290L46 174Z" fill="#081a28" stroke="#081a28"></path><path d="M58 442L45 540L98 463Z" fill="#205a7a" stroke="#205a7a"></path><path d="M0 290L0 328L99 268Z" fill="#15384f" stroke="#15384f"></path><path d="M0 104L0 151L72 120Z" fill="#15384f" stroke="#15384f"></path><path d="M0 328L0 344L93 372Z" fill="#277297" stroke="#277297"></path><path d="M0 344L0 387L93 372Z" fill="#19435d" stroke="#19435d"></path><path d="M0 26L0 104L36 59Z" fill="#297ea6" stroke="#297ea6"></path><path d="M36 59L0 104L72 120Z" fill="#205a7a" stroke="#205a7a"></path><path d="M0 513L45 540L58 442Z" fill="#297ea6" stroke="#297ea6"></path><path d="M62 0L0 26L36 59Z" fill="#112e42" stroke="#112e42"></path><path d="M62 0L0 0L0 26Z" fill="#00101c" stroke="#00101c"></path><path d="M0 387L0 513L58 442Z" fill="#0c2435" stroke="#0c2435"></path><path d="M0 513L0 540L45 540Z" fill="#081a28" stroke="#081a28"></path></g></svg>